<svg preserveAspectRatio="none" width="100%" height="100%" overflow="visible" style="display: block;" viewBox="0 0 358.694 728.114" fill="none" xmlns="http://www.w3.org/2000/svg">
<g id="Group 1" opacity="0.04">
<path id="Vector" d="M358.694 47.441H249.68V501.711H358.694V549.112H100.145L110.287 481.848V47.441H0V1.43051e-06H358.694V47.441Z" fill="var(--fill-0, #0E354B)"/>
<path id="Vector_2" d="M239.539 609.571C255.593 623.182 263.643 639.523 263.643 658.634C263.643 677.745 255.638 695.036 239.539 708.251C223.485 721.467 203.201 728.114 178.688 728.114C154.175 728.114 134.982 721.309 118.474 707.697C102.01 694.086 93.7784 677.745 93.7784 658.634C93.7784 639.523 102.01 623.143 118.474 609.571C134.937 595.96 155.039 589.154 178.688 589.154C202.337 589.154 223.485 595.96 239.539 609.571Z" fill="var(--fill-0, #1C7C87)"/>
</g>
</svg>
